# xmcd
#
# Track frame offsets: 
#        150
#        40677
#        46347
#        73292
#        95990
#        99897
#        168190
#        172050
#        209595
#        244057
#        247380
#
# Disc length: 3835 seconds
#
# Revision: 17
# Processed by: cddbd v1.5.2PL0 Copyright (c) Steve Scherf et al.
# Submitted via: ExactAudioCopy v0.99pb5
#
DISCID=a20ef90b
DTITLE=Albert King With Stevie Ray Vaughan - In Session
DYEAR=1983
DGENRE=Blues
TTITLE0=Call It Stormy Monday
TTITLE1="Old Times"
TTITLE2=Pride And Joy
TTITLE3=Ask Me No Questions
TTITLE4="Pep Talk"
TTITLE5=Blues At Sunrise
TTITLE6="Turn It Over"
TTITLE7=Overall Junction
TTITLE8=Match Box Blues
TTITLE9="Who Is Stevie?"
TTITLE10=Don't Lie To Me
EXTD=DNOTES YEAR: 1999
EXTT0=
EXTT1=
EXTT2=
EXTT3=
EXTT4=
EXTT5=
EXTT6=
EXTT7=
EXTT8=
EXTT9=
EXTT10=
PLAYORDER=
